Coordinates
version=1
nRows=4
nColumns=63
inDegrees=yes

Units are S.I. units (second, meters, Newtons, ...)
If the header above contains a line with 'inDegrees', this indicates whether rotational values are in degrees (yes) or radians (no).

endheader
time	pelvis_tilt	pelvis_list	pelvis_rotation	pelvis_tx	pelvis_ty	pelvis_tz	hip_flexion_r	hip_adduction_r	hip_rotation_r	knee_angle_r	knee_angle_r_beta	ankle_angle_r	subtalar_angle_r	mtp_angle_r	hip_flexion_l	hip_adduction_l	hip_rotation_l	knee_angle_l	knee_angle_l_beta	ankle_angle_l	subtalar_angle_l	mtp_angle_l	L5_S1_Flex_Ext	L5_S1_Lat_Bending	L5_S1_axial_rotation	L4_L5_Flex_Ext	L4_L5_Lat_Bending	L4_L5_axial_rotation	L3_L4_Flex_Ext	L3_L4_Lat_Bending	L3_L4_axial_rotation	L2_L3_Flex_Ext	L2_L3_Lat_Bending	L2_L3_axial_rotation	L1_L2_Flex_Ext	L1_L2_Lat_Bending	L1_L2_axial_rotation	L1_T12_Flex_Ext	L1_T12_Lat_Bending	L1_T12_axial_rotation	Abs_r3	Abs_r2	Abs_r1	Abs_t1	Abs_t2	neck_flexion	neck_bending	neck_rotation	arm_flex_r	arm_add_r	arm_rot_r	elbow_flex_r	pro_sup_r	wrist_flex_r	wrist_dev_r	arm_flex_l	arm_add_l	arm_rot_l	elbow_flex_l	pro_sup_l	wrist_flex_l	wrist_dev_l
      0.00000000	      3.15508421	     -5.45827417	     90.48284898	      0.10111705	      0.67366016	      0.82568437	      0.00433548	      3.98184908	      3.65241157	      5.24000459	      0.09145533	     12.89079287	     -7.74722755	      0.00000000	      1.07917182	     -2.24436577	    -10.78201889	      7.03329882	      0.12275422	     21.97718215	      8.61506518	      0.00000000	      0.20305755	      0.09425215	      0.96617806	      0.37709817	      0.12535535	      1.02656419	      0.33360324	      0.22916467	      1.02656419	      0.23207447	      0.22916467	      0.84540581	      0.18855924	      0.19219898	      0.78501968	      0.11602708	      0.14599657	      0.72463355	      1.45041974	      1.06619913	      5.37359254	      0.00000000	      0.00000000	     27.86490321	     -1.17933747	     -5.24637576	      0.84022356	    -17.47369013	     35.52149883	     78.30385230	     74.90907307	     25.42136724	     31.67564573	     14.62808390	    -17.82552490	     51.82097220	     78.74014170	     85.51257784	     20.31682149	     27.30805095
      0.01694915	      3.24570746	     -5.51088636	     90.55314671	      0.10086903	      0.67329418	      0.82534054	      0.00400763	      4.07394613	      3.97997379	      5.14162581	      0.08973830	     13.16102150	     -7.64363681	      0.00000000	      1.10963984	     -2.23007734	     -9.41105111	      7.13135595	      0.12446564	     21.74578955	      6.71766165	      0.00000000	      0.20241635	      0.10856121	      0.95516267	      0.37590740	      0.14438641	      1.01486034	      0.33254982	      0.26395573	      1.01486034	      0.23134165	      0.26395573	      0.83576734	      0.18796382	      0.22137802	      0.77606967	      0.11566070	      0.16816132	      0.71637200	      1.44583975	      1.22806613	      5.31232821	      0.00000000	      0.00000000	     27.79966167	     -0.57529572	     -5.02047590	     -0.01531146	    -18.43129684	     37.46332710	     79.94527872	     60.39872099	      8.98386201	     31.34761439	     12.97880601	    -17.13581011	     49.33709919	     78.91387994	     83.60703858	     19.71554115	     28.49255078
      0.03389831	      3.33365370	     -5.51853882	     90.60276061	      0.10061882	      0.67306686	      0.82514655	      0.00060500	      4.13469052	      3.66280263	      5.09479036	      0.08892087	     13.66659391	     -6.76203475	      0.00000000	      1.12054213	     -2.23080626	     -8.27923972	      7.23557754	      0.12628465	     21.54123378	      5.15553026	      0.00000000	      0.19235378	      0.12280873	      0.94556882	      0.35722020	      0.16333561	      1.00466687	      0.31601802	      0.29859714	      1.00466687	      0.21984113	      0.29859714	      0.82737272	      0.17861972	      0.25043156	      0.76827466	      0.10991095	      0.19023072	      0.70917661	      1.37396380	      1.38923691	      5.25897009	      0.00000000	      0.00000000	     27.67646626	     -0.23199246	     -4.85342236	     -0.48267203	    -18.84755245	     38.24307429	     81.13122856	     54.61921504	      1.16789382	     29.68942906	     11.93960563	    -16.65923666	     47.76682674	     79.08510975	     81.60867904	     18.63191769	     29.33215711
      0.05084746	      3.36301827	     -5.54519870	     90.53720422	      0.10064025	      0.67294374	      0.82502458	      0.04041914	      4.12442411	      3.22902758	      5.05991308	      0.08831214	     14.21350347	     -5.65204114	      0.00000000	      1.12473536	     -2.21183285	     -7.76427085	      7.28830239	      0.12720487	     21.36344189	      4.30932158	      0.00000000	      0.18587803	      0.12949123	      0.94564580	      0.34519409	      0.17222333	      1.00474866	      0.30537902	      0.31484497	      1.00474866	      0.21244000	      0.31484497	      0.82744007	      0.17260634	      0.26405851	      0.76833721	      0.10621071	      0.20058191	      0.70923435	      1.32770820	      1.46483066	      5.25939824	      0.00000000	      0.00000000	     27.48753511	     -0.02113602	     -4.62782713	     -0.68107335	    -19.07700980	     38.60781826	     81.69950628	     52.82822955	     -1.56742737	     28.35949879	     11.32958362	    -16.42347325	     46.85835191	     79.24106572	     80.07246363	     17.47965884	     29.66933446
